<mxfile host="app.diagrams.net" modified="2024-09-16T09:12:53.978Z" agent="Mozilla/5.0 (Windows NT 10.0; Win64; x64) AppleWebKit/537.36 (KHTML, like Gecko) Chrome/128.0.0.0 Safari/537.36" version="24.4.7" etag="wIKI6-kLp3LMyJsNMJX9" type="github">
  <diagram name="Trang-1" id="TWqaRGW5JgutCqAqyhzS">
    <mxGraphModel>
      <root>
        <mxCell id="0" />
        <mxCell id="1" parent="0" />
      </root>
    </mxGraphModel>
  </diagram>
</mxfile>
